<svg width="16" height="22" viewBox="0 0 16 22" fill="none" xmlns="http://www.w3.org/2000/svg">
<mask id="mask0_541_617" style="mask-type:alpha" maskUnits="userSpaceOnUse" x="0" y="0" width="16" height="22">
<path d="M13.3286 2.07455C12.244 1.08597 10.9156 0.417854 9.48653 0.142116C8.05742 -0.133622 6.58167 -0.0065458 5.21809 0.509668C3.8545 1.02588 2.65472 1.91169 1.74784 3.07176C0.840971 4.23183 0.261349 5.62225 0.0713554 7.09337C-0.0992767 8.38329 0.0371896 9.69617 0.469205 10.9209C0.901221 12.1456 1.61607 13.2461 2.55326 14.1293C3.13281 14.6478 3.60047 15.2835 3.9266 15.9961C4.25272 16.7086 4.4302 17.4826 4.44779 18.2688V18.4147C4.44873 19.3017 4.79449 20.152 5.40922 20.7791C6.02394 21.4063 6.85742 21.759 7.72678 21.76H8.27772C9.14707 21.759 9.98055 21.4063 10.5953 20.7791C11.21 20.152 11.5558 19.3017 11.5567 18.4147V17.917C11.57 17.2221 11.7303 16.5383 12.0266 15.9124C12.3229 15.2865 12.7483 14.7334 13.2735 14.2907C14.1253 13.5296 14.8089 12.5925 15.2789 11.5415C15.7489 10.4905 15.9947 9.34959 15.9999 8.19439C16.0051 7.03918 15.7697 5.89603 15.3091 4.84066C14.8486 3.7853 14.1735 2.84183 13.3286 2.07274V2.07455ZM8.27772 19.9468H7.72678C7.32863 19.9464 6.94692 19.7848 6.66539 19.4976C6.38386 19.2103 6.22549 18.8209 6.22502 18.4147C6.22502 18.4147 6.2188 18.179 6.21791 18.1337H9.77948V18.4147C9.77901 18.8209 9.62064 19.2103 9.3391 19.4976C9.05757 19.7848 8.67587 19.9464 8.27772 19.9468ZM12.0988 12.929C11.087 13.8243 10.3563 15.0039 9.99808 16.3205H8.89086V9.80767C9.40884 9.62084 9.85759 9.2753 10.1757 8.81832C10.4938 8.36134 10.6658 7.81524 10.6681 7.25474C10.6681 7.0143 10.5745 6.78371 10.4078 6.61369C10.2412 6.44368 10.0152 6.34816 9.77948 6.34816C9.5438 6.34816 9.31778 6.44368 9.15113 6.61369C8.98448 6.78371 8.89086 7.0143 8.89086 7.25474C8.89086 7.49518 8.79724 7.72577 8.63059 7.89579C8.46394 8.06581 8.23792 8.16132 8.00225 8.16132C7.76657 8.16132 7.54055 8.06581 7.3739 7.89579C7.20725 7.72577 7.11363 7.49518 7.11363 7.25474C7.11363 7.0143 7.02001 6.78371 6.85336 6.61369C6.68671 6.44368 6.46069 6.34816 6.22502 6.34816C5.98934 6.34816 5.76332 6.44368 5.59667 6.61369C5.43002 6.78371 5.3364 7.0143 5.3364 7.25474C5.33868 7.81524 5.51064 8.36134 5.82877 8.81832C6.1469 9.2753 6.59565 9.62084 7.11363 9.80767V16.3205H5.93888C5.53811 14.969 4.78645 13.7533 3.76355 12.8021C2.89533 11.9767 2.27665 10.9152 1.98052 9.74283C1.68438 8.57043 1.72315 7.33608 2.09225 6.18543C2.46135 5.03478 3.14538 4.01585 4.06361 3.2489C4.98184 2.48195 6.09595 1.99897 7.27447 1.85697C7.51878 1.82915 7.76442 1.81523 8.01024 1.81527C9.5365 1.81064 11.0099 2.38517 12.1441 3.42717C12.8014 4.02514 13.3266 4.75883 13.6849 5.57959C14.0432 6.40035 14.2264 7.28943 14.2224 8.1879C14.2183 9.08637 14.0272 9.97371 13.6615 10.7911C13.2958 11.6085 12.7641 12.3372 12.1014 12.929H12.0988Z" fill="black"/>
</mask>
<g mask="url(#mask0_541_617)">
<rect x="-8.32031" y="-3.2002" width="32.64" height="27.52" fill="#FE9947" fill-opacity="0.8"/>
</g>
</svg>
