<svg width="29" height="28" viewBox="0 0 29 28" fill="none" xmlns="http://www.w3.org/2000/svg">
<rect x="0.667969" width="27.6904" height="28" rx="4" fill="#EAE7FF"/>
<path d="M12.2208 7.21759V6M9.05851 8.48442L8.20706 7.62346M9.05851 14.929L8.20706 15.79M15.4318 8.48442L16.2833 7.62346M7.80569 11.6821H6.60156M17.7313 17.5181L15.731 21.2743C15.5025 21.7034 15.3882 21.918 15.2508 21.9723C15.1315 22.0194 14.9971 22.006 14.8892 21.9365C14.7647 21.8563 14.6938 21.6234 14.5518 21.1576L11.7754 12.0435C11.6595 11.663 11.6016 11.4728 11.6482 11.3443C11.6888 11.2324 11.7761 11.1442 11.8867 11.1031C12.0138 11.0559 12.202 11.1145 12.5782 11.2317L21.5915 14.0392C22.0521 14.1827 22.2824 14.2545 22.3617 14.3803C22.4306 14.4895 22.4437 14.6253 22.3971 14.746C22.3435 14.885 22.1313 15.0005 21.7069 15.2316L17.9923 17.2542C17.9292 17.2885 17.8976 17.3057 17.8701 17.3277C17.8455 17.3473 17.8234 17.3697 17.804 17.3945C17.7822 17.4224 17.7653 17.4543 17.7313 17.5181Z" stroke="#8075DD" stroke-linecap="round" stroke-linejoin="round"/>
</svg>
