<svg width="34" height="34" viewBox="0 0 34 34" fill="none" xmlns="http://www.w3.org/2000/svg">
<circle cx="17" cy="17" r="17" fill="#E6EAFF"/>
<path d="M15.0588 16.3114L9 22.2202V24.8897H11.7894V23.18H13.679V21.0204H15.5589L16.4454 20.1339V18.527H17.1883" stroke="#494DB5" stroke-miterlimit="10" stroke-linecap="round" stroke-linejoin="round"/>
<path d="M21.6164 13.839C22.4211 13.839 23.0735 13.1866 23.0735 12.3819C23.0735 11.5771 22.4211 10.9247 21.6164 10.9247C20.8116 10.9247 20.1592 11.5771 20.1592 12.3819C20.1592 13.1866 20.8116 13.839 21.6164 13.839Z" stroke="#494DB5" stroke-miterlimit="10" stroke-linecap="round" stroke-linejoin="round"/>
<path d="M16.3457 15.0291C15.8185 13.4664 16.2179 11.6293 17.5183 10.3484C19.3046 8.58915 22.1144 8.54568 23.7943 10.2513C25.4742 11.957 25.388 14.7658 23.6018 16.5251C22.1576 17.9475 20.0443 18.2483 18.4 17.41" stroke="#494DB5" stroke-miterlimit="10" stroke-linecap="round" stroke-linejoin="round"/>
</svg>
