<svg width="21" height="21" viewBox="0 0 21 21" fill="none" xmlns="http://www.w3.org/2000/svg">
<mask id="mask0_541_624" style="mask-type:alpha" maskUnits="userSpaceOnUse" x="0" y="0" width="21" height="21">
<path d="M16.9202 12.8332C16.2594 12.8337 15.6086 12.9952 15.024 13.3037C14.4395 13.6123 13.9387 14.0585 13.5649 14.6041L7.87606 12.0326C8.28012 11.0558 8.28169 9.95867 7.88043 8.98075L13.5614 6.39613C14.1154 7.19825 14.9382 7.77503 15.8806 8.02184C16.823 8.26865 17.8226 8.16914 18.698 7.74138C19.5734 7.31361 20.2666 6.58591 20.652 5.69028C21.0374 4.79465 21.0893 3.79041 20.7984 2.85972C20.5075 1.92903 19.8931 1.13354 19.0665 0.617545C18.2399 0.101548 17.256 -0.100777 16.2931 0.0472682C15.3303 0.195314 14.4524 0.683924 13.8186 1.42447C13.1848 2.16502 12.8371 3.10845 12.8386 4.08363C12.8423 4.31444 12.8657 4.54452 12.9085 4.77134L6.86922 7.5187C6.28918 6.97467 5.56304 6.6121 4.77999 6.47555C3.99695 6.33899 3.19111 6.43438 2.46148 6.75002C1.73185 7.06565 1.11021 7.58777 0.672925 8.25223C0.235639 8.91669 0.00175623 9.69456 9.85184e-06 10.4903C-0.00173652 11.286 0.22873 12.0649 0.663095 12.7312C1.09746 13.3976 1.71681 13.9225 2.44504 14.2413C3.17328 14.5601 3.97869 14.6591 4.76232 14.526C5.54596 14.3929 6.27369 14.0335 6.85611 13.492L12.9112 16.2289C12.8691 16.4555 12.846 16.6852 12.8421 16.9157C12.8419 17.7234 13.081 18.513 13.5292 19.1847C13.9773 19.8563 14.6143 20.3798 15.3597 20.689C16.1051 20.9982 16.9253 21.0791 17.7166 20.9216C18.5079 20.764 19.2348 20.3751 19.8053 19.804C20.3758 19.2329 20.7643 18.5052 20.9217 17.713C21.079 16.9208 20.9982 16.0997 20.6893 15.3535C20.3805 14.6073 19.8576 13.9696 19.1866 13.521C18.5157 13.0724 17.727 12.833 16.9202 12.8332ZM16.9202 1.75013C17.3812 1.74995 17.832 1.88666 18.2154 2.14297C18.5989 2.39927 18.8978 2.76365 19.0743 3.19003C19.2509 3.61641 19.2972 4.08562 19.2073 4.53834C19.1175 4.99105 18.8955 5.40692 18.5696 5.73336C18.2436 6.05979 17.8283 6.28212 17.3761 6.37223C16.9239 6.46234 16.4552 6.41618 16.0292 6.23959C15.6033 6.063 15.2392 5.76391 14.983 5.38015C14.7268 4.99638 14.5901 4.54519 14.5901 4.08363C14.5906 3.46504 14.8362 2.8719 15.273 2.43441C15.7099 1.99692 16.3023 1.75082 16.9202 1.75013ZM4.10214 12.8332C3.64109 12.8333 3.19034 12.6966 2.8069 12.4403C2.42346 12.184 2.12456 11.8196 1.948 11.3933C1.77144 10.9669 1.72516 10.4977 1.815 10.045C1.90484 9.59225 2.12678 9.17638 2.45273 8.84994C2.77868 8.52351 3.19402 8.30118 3.6462 8.21107C4.09839 8.12096 4.56711 8.16712 4.99308 8.34371C5.41906 8.5203 5.78315 8.81939 6.03932 9.20315C6.29549 9.58692 6.43222 10.0381 6.43222 10.4997C6.43153 11.1182 6.18584 11.7112 5.74904 12.1486C5.31224 12.5861 4.71998 12.8322 4.10214 12.8332ZM16.9202 19.2492C16.4592 19.2492 16.0085 19.1124 15.6252 18.8559C15.2419 18.5995 14.9431 18.2351 14.7667 17.8087C14.5902 17.3823 14.5441 16.9131 14.634 16.4605C14.724 16.0078 14.946 15.592 15.2719 15.2657C15.5979 14.9393 16.0133 14.7171 16.4654 14.627C16.9176 14.537 17.3863 14.5832 17.8122 14.7598C18.2381 14.9365 18.6022 15.2355 18.8583 15.6193C19.1144 16.003 19.2511 16.4542 19.2511 16.9157C19.2507 17.5345 19.0049 18.1277 18.5679 18.5652C18.1309 19.0028 17.5382 19.2488 16.9202 19.2492Z" fill="black"/>
</mask>
<g mask="url(#mask0_541_624)">
<rect x="-2" y="-2.6665" width="26.6667" height="28" fill="#5D5A68" fill-opacity="0.8"/>
</g>
</svg>
