<svg width="19" height="19" viewBox="0 0 19 19" fill="none" xmlns="http://www.w3.org/2000/svg">
<mask id="mask0_541_627" style="mask-type:alpha" maskUnits="userSpaceOnUse" x="0" y="0" width="19" height="19">
<path d="M18.5163 6.70886C18.3574 6.20117 18.0398 5.75829 17.6106 5.44571C17.1814 5.13314 16.6633 4.96745 16.133 4.97317H12.7378L11.7066 1.74818C11.5444 1.24054 11.2258 0.797691 10.7966 0.483498C10.3674 0.169304 9.84983 0 9.31855 0C8.78727 0 8.26972 0.169304 7.84053 0.483498C7.41133 0.797691 7.09268 1.24054 6.93052 1.74818L5.8993 4.97317H2.50414C1.97551 4.97392 1.46064 5.14228 1.03307 5.45419C0.605497 5.7661 0.287096 6.20561 0.123346 6.70994C-0.0404048 7.21428 -0.0411295 7.75763 0.121275 8.2624C0.28368 8.76717 0.600906 9.20753 1.02764 9.52059L3.79102 11.5479L2.74038 14.8127C2.57059 15.319 2.56844 15.8669 2.73425 16.3745C2.90005 16.8822 3.22494 17.3225 3.66047 17.6299C4.08854 17.947 4.60728 18.117 5.13941 18.1143C5.67154 18.1116 6.18857 17.9365 6.61346 17.615L9.31855 15.6174L12.0244 17.6127C12.4517 17.9281 12.9677 18.0994 13.4981 18.1019C14.0285 18.1045 14.5461 17.9383 14.9765 17.6271C15.4068 17.316 15.7277 16.8759 15.8931 16.3702C16.0584 15.8645 16.0597 15.3192 15.8967 14.8127L14.8461 11.5479L17.6126 9.52059C18.0442 9.21146 18.3651 8.77111 18.5279 8.26471C18.6907 7.7583 18.6866 7.21277 18.5163 6.70886ZM16.6956 8.26132L13.4753 10.6231C13.343 10.72 13.2446 10.8562 13.1941 11.0125C13.1436 11.1688 13.1435 11.337 13.194 11.4933L14.4179 15.2906C14.4798 15.4832 14.4793 15.6906 14.4164 15.8829C14.3535 16.0751 14.2314 16.2425 14.0678 16.3607C13.9041 16.479 13.7073 16.5422 13.5056 16.5412C13.3039 16.5401 13.1077 16.4749 12.9453 16.355L9.7786 14.0158C9.64522 13.9175 9.48405 13.8645 9.31855 13.8645C9.15306 13.8645 8.99189 13.9175 8.85851 14.0158L5.69181 16.355C5.52946 16.4766 5.33274 16.5431 5.13017 16.5449C4.92761 16.5468 4.72972 16.4838 4.56519 16.3652C4.40067 16.2466 4.27807 16.0786 4.21516 15.8853C4.15225 15.6921 4.15231 15.4838 4.21532 15.2906L5.44314 11.4933C5.49359 11.337 5.49355 11.1688 5.44303 11.0125C5.39252 10.8562 5.2941 10.72 5.16183 10.6231L1.94152 8.26132C1.77934 8.14217 1.65883 7.97465 1.59721 7.78267C1.5356 7.5907 1.53602 7.3841 1.59841 7.19238C1.66081 7.00066 1.782 6.83362 1.94466 6.71514C2.10732 6.59666 2.30314 6.53278 2.50414 6.53264H6.46736C6.63189 6.53264 6.79217 6.48024 6.92511 6.38299C7.05806 6.28574 7.15682 6.14867 7.20716 5.99151L8.41167 2.2246C8.4735 2.03184 8.59469 1.86373 8.7578 1.74447C8.9209 1.62522 9.11752 1.56097 9.31933 1.56097C9.52115 1.56097 9.71776 1.62522 9.88086 1.74447C10.044 1.86373 10.1652 2.03184 10.227 2.2246L11.4315 5.99151C11.4818 6.14867 11.5806 6.28574 11.7135 6.38299C11.8465 6.48024 12.0068 6.53264 12.1713 6.53264H16.1345C16.3355 6.53278 16.5313 6.59666 16.694 6.71514C16.8567 6.83362 16.9778 7.00066 17.0402 7.19238C17.1026 7.3841 17.1031 7.5907 17.0414 7.78267C16.9798 7.97465 16.8593 8.14217 16.6971 8.26132H16.6956Z" fill="black"/>
</mask>
<g mask="url(#mask0_541_627)">
<rect x="-2.66406" y="-1.59814" width="21.311" height="22.3765" fill="#5D5A68" fill-opacity="0.8"/>
</g>
</svg>
