<svg width="26" height="25" viewBox="0 0 26 25" fill="none" xmlns="http://www.w3.org/2000/svg">
<mask id="mask0_566_1645" style="mask-type:alpha" maskUnits="userSpaceOnUse" x="0" y="0" width="26" height="25">
<ellipse cx="13.0862" cy="12.5" rx="12.22" ry="12.5" fill="#D9D9D9"/>
</mask>
<g mask="url(#mask0_566_1645)">
<path d="M37.7868 0H-8.49316V25H37.7868V0Z" fill="white"/>
<path d="M37.7868 0H-8.49316V1.92308H37.7868V0Z" fill="#BB133E"/>
<path d="M37.7868 3.84619H-8.49316V5.76927H37.7868V3.84619Z" fill="#BB133E"/>
<path d="M37.7868 7.69226H-8.49316V9.61534H37.7868V7.69226Z" fill="#BB133E"/>
<path d="M37.7868 11.5385H-8.49316V13.4615H37.7868V11.5385Z" fill="#BB133E"/>
<path d="M37.7868 15.3846H-8.49316V17.3077H37.7868V15.3846Z" fill="#BB133E"/>
<path d="M37.7868 19.2307H-8.49316V21.1538H37.7868V19.2307Z" fill="#BB133E"/>
<path d="M37.7868 23.0769H-8.49316V25H37.7868V23.0769Z" fill="#BB133E"/>
<path d="M10.0188 0H-8.49316V13.4615H10.0188V0Z" fill="#002664"/>
<path d="M2.49566 1.47789L1.85748 1.95377L2.10124 1.18377L2.49566 1.47789Z" fill="white"/>
<path d="M2.22229 1.56875L1.58412 1.09287L2.37295 1.09287L2.22229 1.56875Z" fill="white"/>
<path d="M2.05469 1.33079L2.29845 0.560791L2.54221 1.33079H2.05469Z" fill="white"/>
<path d="M2.22204 1.0928L3.01087 1.0928L2.3727 1.56869L2.22204 1.0928Z" fill="white"/>
<path d="M2.49458 1.1837L2.73834 1.9537L2.10016 1.47781L2.49458 1.1837Z" fill="white"/>
<path d="M5.56499 1.47789L4.92682 1.95377L5.17058 1.18377L5.56499 1.47789Z" fill="white"/>
<path d="M5.29163 1.56875L4.65345 1.09287L5.44228 1.09287L5.29163 1.56875Z" fill="white"/>
<path d="M5.12402 1.33079L5.36779 0.560791L5.61155 1.33079H5.12402Z" fill="white"/>
<path d="M5.29138 1.0928L6.08021 1.0928L5.44203 1.56869L5.29138 1.0928Z" fill="white"/>
<path d="M5.56391 1.1837L5.80767 1.9537L5.1695 1.47781L5.56391 1.1837Z" fill="white"/>
<path d="M8.63433 1.47789L7.99615 1.95377L8.23991 1.18377L8.63433 1.47789Z" fill="white"/>
<path d="M8.36097 1.56875L7.72279 1.09287L8.51162 1.09287L8.36097 1.56875Z" fill="white"/>
<path d="M8.19336 1.33079L8.43712 0.560791L8.68088 1.33079H8.19336Z" fill="white"/>
<path d="M8.36071 1.0928L9.14955 1.0928L8.51137 1.56869L8.36071 1.0928Z" fill="white"/>
<path d="M8.63325 1.1837L8.87701 1.9537L8.23883 1.47781L8.63325 1.1837Z" fill="white"/>
<path d="M0.962454 2.82786L0.324277 3.30375L0.568039 2.53375L0.962454 2.82786Z" fill="white"/>
<path d="M0.521484 2.68077L0.765247 1.91077L1.00901 2.68077H0.521484Z" fill="white"/>
<path d="M0.688839 2.44278L1.47767 2.44278L0.839492 2.91866L0.688839 2.44278Z" fill="white"/>
<path d="M0.961374 2.53367L1.20514 3.30367L0.566958 2.82779L0.961374 2.53367Z" fill="white"/>
<path d="M4.03081 2.82786L3.39264 3.30375L3.6364 2.53375L4.03081 2.82786Z" fill="white"/>
<path d="M3.75745 2.91873L3.11927 2.44284L3.9081 2.44284L3.75745 2.91873Z" fill="white"/>
<path d="M3.58984 2.68077L3.83361 1.91077L4.07737 2.68077H3.58984Z" fill="white"/>
<path d="M3.7572 2.44278L4.54603 2.44278L3.90785 2.91866L3.7572 2.44278Z" fill="white"/>
<path d="M4.02973 2.53367L4.2735 3.30367L3.63532 2.82779L4.02973 2.53367Z" fill="white"/>
<path d="M7.10015 2.82786L6.46197 3.30375L6.70573 2.53375L7.10015 2.82786Z" fill="white"/>
<path d="M6.82679 2.91873L6.18861 2.44284L6.97744 2.44284L6.82679 2.91873Z" fill="white"/>
<path d="M6.65918 2.68077L6.90294 1.91077L7.1467 2.68077H6.65918Z" fill="white"/>
<path d="M6.82653 2.44278L7.61537 2.44278L6.97719 2.91866L6.82653 2.44278Z" fill="white"/>
<path d="M7.09907 2.53367L7.34283 3.30367L6.70465 2.82779L7.09907 2.53367Z" fill="white"/>
<path d="M2.49566 4.17784L1.85748 4.65372L2.10124 3.88372L2.49566 4.17784Z" fill="white"/>
<path d="M2.22229 4.2687L1.58412 3.79282L2.37295 3.79282L2.22229 4.2687Z" fill="white"/>
<path d="M2.05469 4.03074L2.29845 3.26074L2.54221 4.03074H2.05469Z" fill="white"/>
<path d="M2.22204 3.79275L3.01087 3.79275L2.3727 4.26864L2.22204 3.79275Z" fill="white"/>
<path d="M2.49458 3.88365L2.73834 4.65365L2.10016 4.17776L2.49458 3.88365Z" fill="white"/>
<path d="M5.56499 4.17784L4.92682 4.65372L5.17058 3.88372L5.56499 4.17784Z" fill="white"/>
<path d="M5.29163 4.2687L4.65345 3.79282L5.44228 3.79282L5.29163 4.2687Z" fill="white"/>
<path d="M5.12402 4.03074L5.36779 3.26074L5.61155 4.03074H5.12402Z" fill="white"/>
<path d="M5.29138 3.79275L6.08021 3.79275L5.44203 4.26864L5.29138 3.79275Z" fill="white"/>
<path d="M5.56391 3.88365L5.80767 4.65365L5.1695 4.17776L5.56391 3.88365Z" fill="white"/>
<path d="M8.63433 4.17784L7.99615 4.65372L8.23991 3.88372L8.63433 4.17784Z" fill="white"/>
<path d="M8.36097 4.2687L7.72279 3.79282L8.51162 3.79282L8.36097 4.2687Z" fill="white"/>
<path d="M8.19336 4.03074L8.43712 3.26074L8.68088 4.03074H8.19336Z" fill="white"/>
<path d="M8.36071 3.79275L9.14955 3.79275L8.51137 4.26864L8.36071 3.79275Z" fill="white"/>
<path d="M8.63325 3.88365L8.87701 4.65365L8.23883 4.17776L8.63325 3.88365Z" fill="white"/>
<path d="M0.962454 5.52794L0.324277 6.00382L0.568039 5.23382L0.962454 5.52794Z" fill="white"/>
<path d="M0.521484 5.38084L0.765247 4.61084L1.00901 5.38084H0.521484Z" fill="white"/>
<path d="M0.688839 5.14285L1.47767 5.14285L0.839492 5.61874L0.688839 5.14285Z" fill="white"/>
<path d="M0.961374 5.23375L1.20514 6.00375L0.566958 5.52786L0.961374 5.23375Z" fill="white"/>
<path d="M4.03081 5.52794L3.39264 6.00382L3.6364 5.23382L4.03081 5.52794Z" fill="white"/>
<path d="M3.75745 5.6188L3.11927 5.14292L3.9081 5.14292L3.75745 5.6188Z" fill="white"/>
<path d="M3.58984 5.38084L3.83361 4.61084L4.07737 5.38084H3.58984Z" fill="white"/>
<path d="M3.7572 5.14285L4.54603 5.14285L3.90785 5.61874L3.7572 5.14285Z" fill="white"/>
<path d="M4.02973 5.23375L4.2735 6.00375L3.63532 5.52786L4.02973 5.23375Z" fill="white"/>
<path d="M7.10015 5.52794L6.46197 6.00382L6.70573 5.23382L7.10015 5.52794Z" fill="white"/>
<path d="M6.82679 5.6188L6.18861 5.14292L6.97744 5.14292L6.82679 5.6188Z" fill="white"/>
<path d="M6.65918 5.38084L6.90294 4.61084L7.1467 5.38084H6.65918Z" fill="white"/>
<path d="M6.82653 5.14285L7.61537 5.14285L6.97719 5.61874L6.82653 5.14285Z" fill="white"/>
<path d="M7.09907 5.23375L7.34283 6.00375L6.70465 5.52786L7.09907 5.23375Z" fill="white"/>
<path d="M2.49566 6.87791L1.85748 7.3538L2.10124 6.5838L2.49566 6.87791Z" fill="white"/>
<path d="M2.22229 6.96878L1.58412 6.49289L2.37295 6.49289L2.22229 6.96878Z" fill="white"/>
<path d="M2.05469 6.73082L2.29845 5.96082L2.54221 6.73082H2.05469Z" fill="white"/>
<path d="M2.22204 6.49283L3.01087 6.49283L2.3727 6.96871L2.22204 6.49283Z" fill="white"/>
<path d="M2.49458 6.58372L2.73834 7.35372L2.10016 6.87784L2.49458 6.58372Z" fill="white"/>
<path d="M5.56499 6.87791L4.92682 7.3538L5.17058 6.5838L5.56499 6.87791Z" fill="white"/>
<path d="M5.29163 6.96878L4.65345 6.49289L5.44228 6.49289L5.29163 6.96878Z" fill="white"/>
<path d="M5.12402 6.73082L5.36779 5.96082L5.61155 6.73082H5.12402Z" fill="white"/>
<path d="M5.29138 6.49283L6.08021 6.49283L5.44203 6.96871L5.29138 6.49283Z" fill="white"/>
<path d="M5.56391 6.58372L5.80767 7.35372L5.1695 6.87784L5.56391 6.58372Z" fill="white"/>
<path d="M8.63433 6.87791L7.99615 7.3538L8.23991 6.5838L8.63433 6.87791Z" fill="white"/>
<path d="M8.36097 6.96878L7.72279 6.49289L8.51162 6.49289L8.36097 6.96878Z" fill="white"/>
<path d="M8.19336 6.73082L8.43712 5.96082L8.68088 6.73082H8.19336Z" fill="white"/>
<path d="M8.36071 6.49283L9.14955 6.49283L8.51137 6.96871L8.36071 6.49283Z" fill="white"/>
<path d="M8.63325 6.58372L8.87701 7.35372L8.23883 6.87784L8.63325 6.58372Z" fill="white"/>
<path d="M0.962454 8.22789L0.324277 8.70377L0.568039 7.93377L0.962454 8.22789Z" fill="white"/>
<path d="M0.521484 8.08079L0.765247 7.31079L1.00901 8.08079H0.521484Z" fill="white"/>
<path d="M0.688839 7.8428L1.47767 7.8428L0.839492 8.31869L0.688839 7.8428Z" fill="white"/>
<path d="M0.961374 7.9337L1.20514 8.7037L0.566958 8.22781L0.961374 7.9337Z" fill="white"/>
<path d="M4.03081 8.22789L3.39264 8.70377L3.6364 7.93377L4.03081 8.22789Z" fill="white"/>
<path d="M3.75745 8.31875L3.11927 7.84287L3.9081 7.84287L3.75745 8.31875Z" fill="white"/>
<path d="M3.58984 8.08079L3.83361 7.31079L4.07737 8.08079H3.58984Z" fill="white"/>
<path d="M3.7572 7.8428L4.54603 7.8428L3.90785 8.31869L3.7572 7.8428Z" fill="white"/>
<path d="M4.02973 7.9337L4.2735 8.7037L3.63532 8.22781L4.02973 7.9337Z" fill="white"/>
<path d="M7.10015 8.22789L6.46197 8.70377L6.70573 7.93377L7.10015 8.22789Z" fill="white"/>
<path d="M6.82679 8.31875L6.18861 7.84287L6.97744 7.84287L6.82679 8.31875Z" fill="white"/>
<path d="M6.65918 8.08079L6.90294 7.31079L7.1467 8.08079H6.65918Z" fill="white"/>
<path d="M6.82653 7.8428L7.61537 7.8428L6.97719 8.31869L6.82653 7.8428Z" fill="white"/>
<path d="M7.09907 7.9337L7.34283 8.7037L6.70465 8.22781L7.09907 7.9337Z" fill="white"/>
<path d="M2.49566 9.57786L1.85748 10.0537L2.10124 9.28375L2.49566 9.57786Z" fill="white"/>
<path d="M2.22229 9.66873L1.58412 9.19284L2.37295 9.19284L2.22229 9.66873Z" fill="white"/>
<path d="M2.05469 9.43077L2.29845 8.66077L2.54221 9.43077H2.05469Z" fill="white"/>
<path d="M2.22204 9.19278L3.01087 9.19278L2.3727 9.66866L2.22204 9.19278Z" fill="white"/>
<path d="M2.49458 9.28367L2.73834 10.0537L2.10016 9.57779L2.49458 9.28367Z" fill="white"/>
<path d="M5.56499 9.57786L4.92682 10.0537L5.17058 9.28375L5.56499 9.57786Z" fill="white"/>
<path d="M5.29163 9.66873L4.65345 9.19284L5.44228 9.19284L5.29163 9.66873Z" fill="white"/>
<path d="M5.12402 9.43077L5.36779 8.66077L5.61155 9.43077H5.12402Z" fill="white"/>
<path d="M5.29138 9.19278L6.08021 9.19278L5.44203 9.66866L5.29138 9.19278Z" fill="white"/>
<path d="M5.56391 9.28367L5.80767 10.0537L5.1695 9.57779L5.56391 9.28367Z" fill="white"/>
<path d="M8.63433 9.57786L7.99615 10.0537L8.23991 9.28375L8.63433 9.57786Z" fill="white"/>
<path d="M8.36097 9.66873L7.72279 9.19284L8.51162 9.19284L8.36097 9.66873Z" fill="white"/>
<path d="M8.19336 9.43077L8.43712 8.66077L8.68088 9.43077H8.19336Z" fill="white"/>
<path d="M8.36071 9.19278L9.14955 9.19278L8.51137 9.66866L8.36071 9.19278Z" fill="white"/>
<path d="M8.63325 9.28367L8.87701 10.0537L8.23883 9.57779L8.63325 9.28367Z" fill="white"/>
<path d="M0.962454 10.928L0.324277 11.4038L0.568039 10.6338L0.962454 10.928Z" fill="white"/>
<path d="M0.521484 10.7809L0.765247 10.0109L1.00901 10.7809H0.521484Z" fill="white"/>
<path d="M0.688839 10.5429L1.47767 10.5429L0.839492 11.0188L0.688839 10.5429Z" fill="white"/>
<path d="M0.961374 10.6338L1.20514 11.4038L0.566958 10.9279L0.961374 10.6338Z" fill="white"/>
<path d="M4.03081 10.928L3.39264 11.4038L3.6364 10.6338L4.03081 10.928Z" fill="white"/>
<path d="M3.75745 11.0188L3.11927 10.5429L3.9081 10.5429L3.75745 11.0188Z" fill="white"/>
<path d="M3.58984 10.7809L3.83361 10.0109L4.07737 10.7809H3.58984Z" fill="white"/>
<path d="M3.7572 10.5429L4.54603 10.5429L3.90785 11.0188L3.7572 10.5429Z" fill="white"/>
<path d="M4.02973 10.6338L4.2735 11.4038L3.63532 10.9279L4.02973 10.6338Z" fill="white"/>
<path d="M7.10015 10.928L6.46197 11.4038L6.70573 10.6338L7.10015 10.928Z" fill="white"/>
<path d="M6.82679 11.0188L6.18861 10.5429L6.97744 10.5429L6.82679 11.0188Z" fill="white"/>
<path d="M6.65918 10.7809L6.90294 10.0109L7.1467 10.7809H6.65918Z" fill="white"/>
<path d="M6.82653 10.5429L7.61537 10.5429L6.97719 11.0188L6.82653 10.5429Z" fill="white"/>
<path d="M7.09907 10.6338L7.34283 11.4038L6.70465 10.9279L7.09907 10.6338Z" fill="white"/>
<path d="M2.49566 12.2779L1.85748 12.7538L2.10124 11.9838L2.49566 12.2779Z" fill="white"/>
<path d="M2.22229 12.3688L1.58412 11.8929L2.37295 11.8929L2.22229 12.3688Z" fill="white"/>
<path d="M2.05469 12.1308L2.29845 11.3608L2.54221 12.1308H2.05469Z" fill="white"/>
<path d="M2.22204 11.8929L3.01087 11.8929L2.3727 12.3687L2.22204 11.8929Z" fill="white"/>
<path d="M2.49458 11.9837L2.73834 12.7537L2.10016 12.2779L2.49458 11.9837Z" fill="white"/>
<path d="M5.56499 12.2779L4.92682 12.7538L5.17058 11.9838L5.56499 12.2779Z" fill="white"/>
<path d="M5.29163 12.3688L4.65345 11.8929L5.44228 11.8929L5.29163 12.3688Z" fill="white"/>
<path d="M5.12402 12.1308L5.36779 11.3608L5.61155 12.1308H5.12402Z" fill="white"/>
<path d="M5.29138 11.8929L6.08021 11.8929L5.44203 12.3687L5.29138 11.8929Z" fill="white"/>
<path d="M5.56391 11.9837L5.80767 12.7537L5.1695 12.2779L5.56391 11.9837Z" fill="white"/>
<path d="M8.63433 12.2779L7.99615 12.7538L8.23991 11.9838L8.63433 12.2779Z" fill="white"/>
<path d="M8.36097 12.3688L7.72279 11.8929L8.51162 11.8929L8.36097 12.3688Z" fill="white"/>
<path d="M8.19336 12.1308L8.43712 11.3608L8.68088 12.1308H8.19336Z" fill="white"/>
<path d="M8.36071 11.8929L9.14955 11.8929L8.51137 12.3687L8.36071 11.8929Z" fill="white"/>
<path d="M8.63325 11.9837L8.87701 12.7537L8.23883 12.2779L8.63325 11.9837Z" fill="white"/>
</g>
</svg>
